<svg width="322.5" height="85" viewBox="0 0 645 170" fill="none" xmlns="http://www.w3.org/2000/svg">
<path d="M243.139 133.917L213.875 72.6667H228.944L239.347 94.6389C240.319 96.6481 241.259 98.7222 242.167 100.861C243.074 102.935 243.981 105.431 244.889 108.347C245.861 105.495 246.833 103.065 247.806 101.056C248.778 99.0463 249.718 97.037 250.625 95.0278L262 70.3333L273.472 95.0278C274.38 96.9722 275.287 98.9491 276.194 100.958C277.167 102.968 278.106 105.431 279.014 108.347C279.921 105.301 280.829 102.773 281.736 100.764C282.708 98.6898 283.648 96.6481 284.556 94.6389L295.056 72.6667H309.347L280.083 133.917L267.444 109.708C266.407 107.699 265.403 105.69 264.431 103.681C263.523 101.606 262.583 99.2731 261.611 96.6806C260.704 99.2731 259.764 101.606 258.792 103.681C257.819 105.69 256.782 107.699 255.681 109.708L243.139 133.917ZM336.58 132.167C331.266 132.167 326.404 130.806 321.997 128.083C317.59 125.361 314.057 121.699 311.4 117.097C308.807 112.495 307.511 107.407 307.511 101.833C307.511 96.2593 308.807 91.1713 311.4 86.5694C314.057 81.9676 317.59 78.3056 321.997 75.5833C326.404 72.8611 331.266 71.5 336.58 71.5C340.469 71.5 344.066 72.213 347.372 73.6389C350.742 75 353.627 76.9444 356.025 79.4722V72.6667H368.178V131H356.025V124.194C353.627 126.657 350.742 128.602 347.372 130.028C344.066 131.454 340.469 132.167 336.58 132.167ZM338.33 119.917C341.571 119.917 344.52 119.106 347.178 117.486C349.9 115.866 352.039 113.694 353.594 110.972C355.215 108.25 356.025 105.204 356.025 101.833C356.025 98.5278 355.215 95.5139 353.594 92.7917C352.039 90.0046 349.932 87.8009 347.275 86.1806C344.617 84.5602 341.636 83.75 338.33 83.75C335.09 83.75 332.108 84.5602 329.386 86.1806C326.729 87.8009 324.59 89.9722 322.969 92.6944C321.414 95.4167 320.636 98.463 320.636 101.833C320.636 105.139 321.414 108.185 322.969 110.972C324.59 113.694 326.729 115.866 329.386 117.486C332.043 119.106 335.025 119.917 338.33 119.917ZM377.738 160.167L396.89 121.764L372.682 72.6667H387.946L399.321 96C400.358 98.0741 401.298 100.083 402.14 102.028C402.983 103.907 403.793 105.981 404.571 108.25C405.349 105.981 406.159 103.907 407.001 102.028C407.909 100.083 408.881 98.0741 409.918 96L421.488 72.6667H436.071L392.515 160.167H377.738ZM447.366 131V83.75H435.31V72.6667H447.657V56.9167C447.657 50.2407 449.602 45.1852 453.491 41.75C457.38 38.25 462.111 36.5 467.685 36.5C469.759 36.5 471.801 36.7593 473.81 37.2778C475.884 37.7315 477.764 38.4769 479.449 39.5139L476.532 51.4722C474.264 48.8148 471.574 47.4861 468.463 47.4861C466.583 47.4861 464.833 48.1343 463.213 49.4306C461.593 50.7268 460.782 53.1898 460.782 56.8194V72.6667H473.81V83.75H461.074V131H447.366ZM502.809 132.167C497.494 132.167 492.633 130.806 488.225 128.083C483.818 125.361 480.285 121.699 477.628 117.097C475.035 112.495 473.739 107.407 473.739 101.833C473.739 96.2593 475.035 91.1713 477.628 86.5694C480.285 81.9676 483.818 78.3056 488.225 75.5833C492.633 72.8611 497.494 71.5 502.809 71.5C506.697 71.5 510.295 72.213 513.6 73.6389C516.971 75 519.855 76.9444 522.253 79.4722V72.6667H534.406V131H522.253V124.194C519.855 126.657 516.971 128.602 513.6 130.028C510.295 131.454 506.697 132.167 502.809 132.167ZM504.559 119.917C507.799 119.917 510.748 119.106 513.406 117.486C516.128 115.866 518.267 113.694 519.822 110.972C521.443 108.25 522.253 105.204 522.253 101.833C522.253 98.5278 521.443 95.5139 519.822 92.7917C518.267 90.0046 516.16 87.8009 513.503 86.1806C510.846 84.5602 507.864 83.75 504.559 83.75C501.318 83.75 498.336 84.5602 495.614 86.1806C492.957 87.8009 490.818 89.9722 489.197 92.6944C487.642 95.4167 486.864 98.463 486.864 101.833C486.864 105.139 487.642 108.185 489.197 110.972C490.818 113.694 492.957 115.866 495.614 117.486C498.271 119.106 501.253 119.917 504.559 119.917ZM545.91 131V72.6667H558.355V82.9722C560.429 79.6019 563.086 76.9444 566.327 75C569.568 73.0556 573.424 72.0833 577.896 72.0833L581.007 84.8194C579.776 84.4306 578.382 84.2361 576.827 84.2361C571.642 84.2361 567.461 85.8889 564.285 89.1944C561.174 92.5 559.618 97.2315 559.618 103.389V131H545.91ZM613.065 132.556C606.778 132.556 601.172 131.194 596.246 128.472C591.32 125.75 587.463 122.023 584.676 117.292C581.954 112.56 580.593 107.213 580.593 101.25C580.593 95.5463 581.922 90.4259 584.579 85.8889C587.301 81.3519 590.931 77.7546 595.468 75.0972C600.07 72.4398 605.125 71.1111 610.635 71.1111C616.209 71.1111 621.232 72.4074 625.704 75C630.241 77.5926 633.838 81.125 636.496 85.5972C639.153 90.0046 640.482 95.0278 640.482 100.667V105.819H603.635C602.014 105.819 600.394 105.755 598.774 105.625C597.153 105.431 595.533 105.204 593.912 104.944C594.69 109.417 596.829 113.144 600.329 116.125C603.894 119.106 608.236 120.597 613.357 120.597C617.051 120.597 620.422 119.819 623.468 118.264C626.514 116.644 629.01 114.569 630.954 112.042L634.26 125.653C631.408 127.921 628.167 129.639 624.537 130.806C620.908 131.972 617.084 132.556 613.065 132.556ZM593.621 96.1944C596.991 95.5463 600.329 95.2222 603.635 95.2222H618.412C620.033 95.2222 621.588 95.287 623.079 95.4167C624.635 95.5463 626.125 95.7083 627.551 95.9028C626.579 91.9491 624.537 88.7407 621.426 86.2778C618.38 83.75 614.75 82.4861 610.537 82.4861C606.454 82.4861 602.857 83.7824 599.746 86.375C596.635 88.9676 594.593 92.2407 593.621 96.1944Z" fill="white"/>
<path d="M45.5002 135.25C45.0001 136.25 45.1668 138.417 45.5001 139.75C46.1668 140.417 49.5002 142.75 53.5002 142.75C57.5002 142.75 62.3335 138.25 64.5001 136.75L85.5001 139.25C85.3335 140.75 85.1002 143.85 87.5002 146.25C88.8307 147.581 91.5002 148.25 94.5002 147.25C96.5085 146.581 97.8246 144.61 98.595 142.815C98.7524 142.449 98.887 142.089 99.0001 141.75C114 122.75 145.3 84.55 148.5 83.75C152.5 82.75 154 78.75 154 77.25V72.25C154 70.25 152 70.0833 151 70.25L124 46.75L63.0002 55.75C61.0002 52.15 57.5002 52.25 56.0002 52.75C55.0002 53.0833 52.4002 54.25 50.0002 56.25C47.6002 58.25 49.0002 61.75 50.0002 63.25L45.5002 135.25Z" fill="white"/>
<path d="M85.5 139.25L64.5 136.75C67 134.75 69 134.75 72.5 129.75C75.3 125.75 80.8333 124.583 84.5 124.75C87.5 125.75 89.784 128.344 88 133.25C86 138.75 85.5 138.083 85.5 139.25Z" fill="#0373FD"/>
<path d="M50.5 62.25L3 87.25L11.5 132.25L45.5 135.25C46.5 132.75 57 128.25 60 125.25C62.4 122.85 68.6667 111.583 71.5 106.25C80.3 103.45 84.5 90.0833 85.5 83.75C86.5 83.75 90.5 83.75 91 81.25C91.5 78.75 90 76.25 89.5 71.25C88.5 59.75 92.5 59.75 93.5 59.25C93.9 57.25 99.3333 57.0833 102 57.25C103 56.75 106.5 56.75 109 57.75C116.2 55.35 118.667 60.4167 119 63.25C117.667 63.0833 115.5 63.15 117.5 64.75C120.7 67.15 119.5 68.4167 118.5 68.75C118.833 69.0833 119.4 70.25 119 72.25C118.6 74.25 117.167 74.75 116.5 74.75C116 75.4167 114.8 77.45 114 80.25C113 83.75 108.5 83.75 107.5 85.25C106.5 86.75 110 87.25 113 87.25C112.5 91.75 112.5 93.75 110 98.25C107.5 102.75 106.5 106.25 104 113.25C102.816 116.565 101.167 119.25 100 120.75C100 120.75 100 139.75 99 142.25L112 144.25L144.5 111.25L150 81.75C149.167 82.4167 147.1 83.55 145.5 82.75C141 82.75 124.5 92.25 121.5 93.75C122.7 91.75 122.667 86.25 122.5 83.75C129.167 80.9167 142.8 75.15 144 74.75C144.8 72.75 149.333 71.25 151.5 70.75L165 3.75L61.5 55.25C62.6667 56.9167 64 59.15 64 60.75C68 70.75 75 79.75 77.5 80.25C77.5 86.25 74.5 89.75 73.5 92.75C69.5 92.25 56.5 68.75 55 66.25C53.4 66.25 51.3333 63.5833 50.5 62.25Z" fill="#0373FD"/>
<ellipse cx="99.5" cy="73.25" rx="3" ry="3.5" fill="#0373FD"/>
<ellipse cx="110" cy="73.75" rx="2.5" ry="3" fill="#0373FD"/>
<path d="M157 70.75C155 71.25 154 71.75 151.5 72.25C151.5 72.25 150 74.25 150.5 79.75C152.5 79.25 155.5 78.25 155.5 78.25C160.5 79.25 171.5 74.25 172.5 72.75C173.5 71.25 175.5 67.75 169 65.75C163.8 64.15 158.833 68.4167 157 70.75Z" fill="white"/>
<path d="M21.5 146.25C28.0001 144.75 32.006 145.288 39.0001 142.25C43.3319 140.369 43.0001 139.75 46 137.75C47 139.25 51.0001 141.25 55.5001 140.75C51.5001 143.25 48.0001 146.25 43.5001 148.25C39.0001 150.25 17 154.25 16 151.75C15 149.25 18.5769 146.925 21.5 146.25Z" fill="white"/>
<path d="M79.4999 152.25C82.2999 149.85 85.1665 145.583 85.9999 143.75C88.9999 146.75 91.4999 147.25 93.4999 146.25C93.9999 147.75 88.9999 154.75 86.4999 156.25C83.9999 157.75 67.4999 167.25 64.9999 167.25C62.4999 167.25 59.9999 166.25 60.4999 162.75C60.9999 159.25 75.9999 155.25 79.4999 152.25Z" fill="white"/>
<path d="M54.9998 58.75C51.7998 60.35 49.6665 57.0833 48.9998 55.25C47.9998 55.25 45.9998 55.25 42.9998 50.2499C39.9998 45.2499 40.4998 44.2499 40.4998 40.2499C39.6998 35.8499 42.4998 35.4166 43.9998 35.75C46.9998 32.75 48.9998 35.75 52.4998 41.25C55.2998 45.65 55.3332 49.75 54.9998 51.25C56.9998 52.75 58.9998 56.75 54.9998 58.75Z" fill="white"/>
<mask id="mask0_52_2" style="mask-type:alpha" maskUnits="userSpaceOnUse" x="3" y="3" width="162" height="142">
<path d="M50.5 62.25L3 87.25L11.5 132.25L45.5 135.25C46.5 132.75 57 128.25 60 125.25C62.4 122.85 68.6667 111.583 71.5 106.25C80.3 103.45 84.5 90.0833 85.5 83.75C86.5 83.75 90.5 83.75 91 81.25C91.5 78.75 90 76.25 89.5 71.25C88.5 59.75 92.5 59.75 93.5 59.25C93.9 57.25 99.3333 57.0833 102 57.25C103 56.75 106.5 56.75 109 57.75C116.2 55.35 118.667 60.4167 119 63.25C117.667 63.0833 115.5 63.15 117.5 64.75C120.7 67.15 119.5 68.4167 118.5 68.75C118.833 69.0833 119.4 70.25 119 72.25C118.6 74.25 117.167 74.75 116.5 74.75C116 75.4167 114.8 77.45 114 80.25C113 83.75 108.5 83.75 107.5 85.25C106.5 86.75 110 87.25 113 87.25C112.5 91.75 112.5 93.75 110 98.25C107.5 102.75 106.5 106.25 104 113.25C102.816 116.565 101.167 119.25 100 120.75C100 120.75 99.5938 140.316 98.5938 142.816L112 144.25L144.5 111.25L150 81.75C149.167 82.4167 147.1 83.55 145.5 82.75C141 82.75 124.5 92.25 121.5 93.75C122.7 91.75 122.667 86.25 122.5 83.75C129.167 80.9167 142.8 75.15 144 74.75C144.8 72.75 149.333 71.25 151.5 70.75L165 3.75L61.5 55.25C62.6667 56.9167 64 59.15 64 60.75C68 70.75 75 79.75 77.5 80.25C77.5 86.25 74.5 89.75 73.5 92.75C69.5 92.25 56.5 68.75 55 66.25C53.4 66.25 51.3333 63.5833 50.5 62.25Z" fill="#2A9FFF"/>
<ellipse cx="99.5" cy="73.25" rx="3" ry="3.5" fill="#2A9FFF"/>
<ellipse cx="110" cy="73.75" rx="2.5" ry="3" fill="#2A9FFF"/>
<path d="M85.5 139.25L64.5 136.75C67 134.75 69 134.75 72.5 129.75C75.3 125.75 80.8333 124.586 84.5 124.753C87.5 125.753 89.784 128.347 88 133.253C86 138.753 85.5 138.083 85.5 139.25Z" fill="#2A9FFF"/>
</mask>
<g mask="url(#mask0_52_2)">
<rect x="3" y="3.25" width="171" height="164" fill="url(#paint0_linear_52_2)"/>
</g>
<defs>
<linearGradient id="paint0_linear_52_2" x1="112" y1="20.75" x2="78" y2="182.75" gradientUnits="userSpaceOnUse">
<stop stop-color="#3A6BFF"/>
<stop offset="1" stop-color="#FF6363"/>
</linearGradient>
</defs>
</svg>
