<svg width="322.5" height="85" viewBox="0 0 645 170" fill="none" xmlns="http://www.w3.org/2000/svg">
<mask id="mask0_52_3" style="mask-type:alpha" maskUnits="userSpaceOnUse" x="0" y="6" width="171" height="164">
<path d="M47.5 65L0 90L8.5 135L43.5 138.5C44.5 136 54 131 57 128C59.4 125.6 65.6667 114.333 68.5 109C77.3 106.2 81.5 92.8333 82.5 86.5C83.5 86.5 87.5 86.5 88 84C88.5 81.5 87 79 86.5 74C85.5 62.5 89.5 62.5 90.5 62C90.9 60 96.3333 59.8333 99 60C100 59.5 103.5 59.5 106 60.5C113.2 58.1 115.667 63.1667 116 66C114.667 65.8333 112.5 65.9 114.5 67.5C117.7 69.9 116.5 71.1667 115.5 71.5C115.833 71.8333 116.4 73 116 75C115.6 77 114.167 77.5 113.5 77.5C113 78.1667 111.8 80.2 111 83C110 86.5 105.5 86.5 104.5 88C103.5 89.5 107 90 110 90C109.5 94.5 109.5 96.5 107 101C104.5 105.5 103.5 109 101 116C99.816 119.315 98.1667 122 97 123.5C97 123.5 96 143 95 145.5L109 147L141.5 114L147 84.5C146.167 85.1667 144.1 86.3 142.5 85.5C138 85.5 121.5 95 118.5 96.5C119.7 94.5 119.667 89 119.5 86.5C126.167 83.6667 139.8 77.9 141 77.5C141.8 75.5 146.333 74 148.5 73.5L162 6.5L58.5 58C59.6667 59.6667 61 61.9 61 63.5C65 73.5 72 82.5 74.5 83C74.5 89 71.5 92.5 70.5 95.5C66.5 95 53.5 71.5 52 69C50.4 69 48.3333 66.3333 47.5 65Z" fill="#2A9FFF"/>
<ellipse cx="96.5" cy="76" rx="3" ry="3.5" fill="#2A9FFF"/>
<ellipse cx="107" cy="76.5" rx="2.5" ry="3" fill="#2A9FFF"/>
<path d="M154 73.5C152 74 151 74.5 148.5 75C148.5 75 147 77 147.5 82.5C149.5 82 152.5 81 152.5 81C157.5 82 168.5 77 169.5 75.5C170.5 74 172.5 70.5 166 68.5C160.8 66.9 155.833 71.1667 154 73.5Z" fill="#2A9FFF"/>
<path d="M18.4999 148C20.8999 148 33.8333 145 42.9999 141.5C43.9999 143 46.9999 144 51.4999 143.5C50.4999 145.5 43.9999 149 39.4999 151C34.9999 153 13.9999 156 12.9999 153.5C11.9999 151 15.4999 148 18.4999 148Z" fill="#2A9FFF"/>
<path d="M76.4999 155C79.2999 152.6 81.6666 149.333 82.4999 147.5C85.4999 150.5 88.4999 150 90.4999 149C90.9999 150.5 85.9999 157.5 83.4999 159C80.9999 160.5 64.4999 170 61.9999 170C59.4999 170 56.9999 169 57.4999 165.5C57.9999 162 72.9999 158 76.4999 155Z" fill="#2A9FFF"/>
<path d="M51.9998 61.5C48.7998 63.1 46.6665 59.8333 45.9998 58C44.9998 58 42.9998 58 39.9998 52.9999C36.9998 47.9999 37.4998 46.9999 37.4998 42.9999C36.6998 38.5999 39.4998 38.1666 40.9998 38.5C43.9998 35.5 45.9998 38.5 49.4998 44C52.2998 48.4 52.3332 52.5 51.9998 54C53.9998 55.5 55.9998 59.5 51.9998 61.5Z" fill="#2A9FFF"/>
<path d="M83 142.003L59 139.003C61.5 137.003 64.5 137.003 68 132.003C70.8 128.003 77.8333 127.336 81.5 127.503C84.5 128.503 86.784 131.097 85 136.003C83 141.503 83 140.836 83 142.003Z" fill="#2A9FFF"/>
</mask>
<g mask="url(#mask0_52_3)">
<rect y="6" width="171" height="164" fill="url(#paint0_linear_52_3)"/>
</g>
<path d="M239.639 136.917L210.375 75.6667H225.444L235.847 97.6389C236.819 99.6481 237.759 101.722 238.667 103.861C239.574 105.935 240.481 108.431 241.389 111.347C242.361 108.495 243.333 106.065 244.306 104.056C245.278 102.046 246.218 100.037 247.125 98.0278L258.5 73.3333L269.972 98.0278C270.88 99.9722 271.787 101.949 272.694 103.958C273.667 105.968 274.606 108.431 275.514 111.347C276.421 108.301 277.329 105.773 278.236 103.764C279.208 101.69 280.148 99.6481 281.056 97.6389L291.556 75.6667H305.847L276.583 136.917L263.944 112.708C262.907 110.699 261.903 108.69 260.931 106.681C260.023 104.606 259.083 102.273 258.111 99.6806C257.204 102.273 256.264 104.606 255.292 106.681C254.319 108.69 253.282 110.699 252.181 112.708L239.639 136.917ZM333.08 135.167C327.766 135.167 322.904 133.806 318.497 131.083C314.09 128.361 310.557 124.699 307.9 120.097C305.307 115.495 304.011 110.407 304.011 104.833C304.011 99.2593 305.307 94.1713 307.9 89.5694C310.557 84.9676 314.09 81.3056 318.497 78.5833C322.904 75.8611 327.766 74.5 333.08 74.5C336.969 74.5 340.566 75.213 343.872 76.6389C347.242 78 350.127 79.9444 352.525 82.4722V75.6667H364.678V134H352.525V127.194C350.127 129.657 347.242 131.602 343.872 133.028C340.566 134.454 336.969 135.167 333.08 135.167ZM334.83 122.917C338.071 122.917 341.02 122.106 343.678 120.486C346.4 118.866 348.539 116.694 350.094 113.972C351.715 111.25 352.525 108.204 352.525 104.833C352.525 101.528 351.715 98.5139 350.094 95.7917C348.539 93.0046 346.432 90.8009 343.775 89.1806C341.117 87.5602 338.136 86.75 334.83 86.75C331.59 86.75 328.608 87.5602 325.886 89.1806C323.229 90.8009 321.09 92.9722 319.469 95.6944C317.914 98.4167 317.136 101.463 317.136 104.833C317.136 108.139 317.914 111.185 319.469 113.972C321.09 116.694 323.229 118.866 325.886 120.486C328.543 122.106 331.525 122.917 334.83 122.917ZM374.238 163.167L393.39 124.764L369.182 75.6667H384.446L395.821 99C396.858 101.074 397.798 103.083 398.64 105.028C399.483 106.907 400.293 108.981 401.071 111.25C401.849 108.981 402.659 106.907 403.501 105.028C404.409 103.083 405.381 101.074 406.418 99L417.988 75.6667H432.571L389.015 163.167H374.238ZM443.866 134V86.75H431.81V75.6667H444.157V59.9167C444.157 53.2407 446.102 48.1852 449.991 44.75C453.88 41.25 458.611 39.5 464.185 39.5C466.259 39.5 468.301 39.7593 470.31 40.2778C472.384 40.7315 474.264 41.4769 475.949 42.5139L473.032 54.4722C470.764 51.8148 468.074 50.4861 464.963 50.4861C463.083 50.4861 461.333 51.1343 459.713 52.4306C458.093 53.7268 457.282 56.1898 457.282 59.8194V75.6667H470.31V86.75H457.574V134H443.866ZM499.309 135.167C493.994 135.167 489.133 133.806 484.725 131.083C480.318 128.361 476.785 124.699 474.128 120.097C471.535 115.495 470.239 110.407 470.239 104.833C470.239 99.2593 471.535 94.1713 474.128 89.5694C476.785 84.9676 480.318 81.3056 484.725 78.5833C489.133 75.8611 493.994 74.5 499.309 74.5C503.197 74.5 506.795 75.213 510.1 76.6389C513.471 78 516.355 79.9444 518.753 82.4722V75.6667H530.906V134H518.753V127.194C516.355 129.657 513.471 131.602 510.1 133.028C506.795 134.454 503.197 135.167 499.309 135.167ZM501.059 122.917C504.299 122.917 507.248 122.106 509.906 120.486C512.628 118.866 514.767 116.694 516.322 113.972C517.943 111.25 518.753 108.204 518.753 104.833C518.753 101.528 517.943 98.5139 516.322 95.7917C514.767 93.0046 512.66 90.8009 510.003 89.1806C507.346 87.5602 504.364 86.75 501.059 86.75C497.818 86.75 494.836 87.5602 492.114 89.1806C489.457 90.8009 487.318 92.9722 485.697 95.6944C484.142 98.4167 483.364 101.463 483.364 104.833C483.364 108.139 484.142 111.185 485.697 113.972C487.318 116.694 489.457 118.866 492.114 120.486C494.771 122.106 497.753 122.917 501.059 122.917ZM542.41 134V75.6667H554.855V85.9722C556.929 82.6019 559.586 79.9444 562.827 78C566.068 76.0556 569.924 75.0833 574.396 75.0833L577.507 87.8194C576.276 87.4306 574.882 87.2361 573.327 87.2361C568.142 87.2361 563.961 88.8889 560.785 92.1944C557.674 95.5 556.118 100.231 556.118 106.389V134H542.41ZM609.565 135.556C603.278 135.556 597.672 134.194 592.746 131.472C587.82 128.75 583.963 125.023 581.176 120.292C578.454 115.56 577.093 110.213 577.093 104.25C577.093 98.5463 578.422 93.4259 581.079 88.8889C583.801 84.3519 587.431 80.7546 591.968 78.0972C596.57 75.4398 601.625 74.1111 607.135 74.1111C612.709 74.1111 617.732 75.4074 622.204 78C626.741 80.5926 630.338 84.125 632.996 88.5972C635.653 93.0046 636.982 98.0278 636.982 103.667V108.819H600.135C598.514 108.819 596.894 108.755 595.274 108.625C593.653 108.431 592.033 108.204 590.412 107.944C591.19 112.417 593.329 116.144 596.829 119.125C600.394 122.106 604.736 123.597 609.857 123.597C613.551 123.597 616.922 122.819 619.968 121.264C623.014 119.644 625.51 117.569 627.454 115.042L630.76 128.653C627.908 130.921 624.667 132.639 621.037 133.806C617.408 134.972 613.584 135.556 609.565 135.556ZM590.121 99.1944C593.491 98.5463 596.829 98.2222 600.135 98.2222H614.912C616.533 98.2222 618.088 98.287 619.579 98.4167C621.135 98.5463 622.625 98.7083 624.051 98.9028C623.079 94.9491 621.037 91.7407 617.926 89.2778C614.88 86.75 611.25 85.4861 607.037 85.4861C602.954 85.4861 599.357 86.7824 596.246 89.375C593.135 91.9676 591.093 95.2407 590.121 99.1944Z" fill="#292F3A"/>
<defs>
<linearGradient id="paint0_linear_52_3" x1="109" y1="23.5" x2="75" y2="185.5" gradientUnits="userSpaceOnUse">
<stop stop-color="#3A6BFF"/>
<stop offset="1" stop-color="#FF6363"/>
</linearGradient>
</defs>
</svg>
