# Blender 4.0.2
# www.blender.org
mtllib pentagon.mtl
o Circle
v 0.000000 -0.250000 -1.000000
v -0.951057 -0.250000 -0.309017
v -0.587785 -0.250000 0.809017
v 0.587785 -0.250000 0.809017
v 0.951057 -0.250000 -0.309017
v 0.000000 -0.250000 -0.770356
v -0.732652 -0.250000 -0.238053
v -0.452804 -0.250000 0.623231
v 0.452804 -0.250000 0.623231
v 0.732652 -0.250000 -0.238053
v 0.000000 0.250000 -1.000000
v -0.951057 0.250000 -0.309017
v -0.587785 0.250000 0.809017
v 0.587785 0.250000 0.809017
v 0.951057 0.250000 -0.309017
v 0.000000 0.250000 -0.770356
v -0.732652 0.250000 -0.238053
v -0.452804 0.250000 0.623231
v 0.452804 0.250000 0.623231
v 0.732652 0.250000 -0.238053
vn -0.0000 -1.0000 -0.0000
vn -0.0000 1.0000 -0.0000
vn -0.5878 -0.0000 -0.8090
vn -0.9511 -0.0000 0.3090
vn -0.0000 -0.0000 1.0000
vn 0.9511 -0.0000 0.3090
vn 0.5878 -0.0000 -0.8090
vn 0.5878 -0.0000 0.8090
vn 0.9511 -0.0000 -0.3090
vn -0.0000 -0.0000 -1.0000
vn -0.9511 -0.0000 -0.3090
vn -0.5878 -0.0000 0.8090
vt 0.000000 0.000000
s 0
f 1/1/1 5/1/1 10/1/1 6/1/1
f 4/1/1 3/1/1 8/1/1 9/1/1
f 2/1/1 1/1/1 6/1/1 7/1/1
f 5/1/1 4/1/1 9/1/1 10/1/1
f 3/1/1 2/1/1 7/1/1 8/1/1
f 11/1/2 16/1/2 20/1/2 15/1/2
f 14/1/2 19/1/2 18/1/2 13/1/2
f 12/1/2 17/1/2 16/1/2 11/1/2
f 15/1/2 20/1/2 19/1/2 14/1/2
f 13/1/2 18/1/2 17/1/2 12/1/2
f 1/1/3 2/1/3 12/1/3 11/1/3
f 2/1/4 3/1/4 13/1/4 12/1/4
f 3/1/5 4/1/5 14/1/5 13/1/5
f 4/1/6 5/1/6 15/1/6 14/1/6
f 5/1/7 1/1/7 11/1/7 15/1/7
f 7/1/8 6/1/8 16/1/8 17/1/8
f 8/1/9 7/1/9 17/1/9 18/1/9
f 9/1/10 8/1/10 18/1/10 19/1/10
f 10/1/11 9/1/11 19/1/11 20/1/11
f 6/1/12 10/1/12 20/1/12 16/1/12
